# xmcd CD database file
#
# Track frame offsets:
#	150
#	14322
#	29008
#	44435
#	57481
#	68693
#	81621
#	96562
#	111551
#	126399
#	142335
#	156743
#	169742
#	182860
#	196001
#	209284
#	222343
#	235662
#	252344
#
# Disc length: 3541 seconds
#
# Revision: 0
# Processed by: cddbd v1.5.1PL0 Copyright (c) Steve Scherf et al.
# Submitted via: CDex 1.51
#
DISCID=320dd313
DTITLE=Jelly Roll Morton - Quadromania Jazz [CD 2)
DYEAR=2005
DGENRE=Jazz
TTITLE0=Hyena Stomp
TTITLE1=Beale Street Blues
TTITLE2=Wolverine Blues
TTITLE3=Mr. Jelly Lord
TTITLE4=Georgia Swing
TTITLE5=Kansas City Stomp
TTITLE6=Shoe Shiner's Drag
TTITLE7=Boogaboo
TTITLE8=Shreveport Stomp
TTITLE9=Deep Creek
TTITLE10=Turtle Twist
TTITLE11=Smilin' The Blues Away
TTITLE12=That's Like It Ought To Be
TTITLE13=My Little Dixie Home
TTITLE14=That'll Never Do
TTITLE15=I'm Looking ForA Little Blue Bird
TTITLE16=Each Day
TTITLE17=If Someone Would Only Love Me
TTITLE18=Little Lawrence
EXTD=YEAR: 2005
EXTT0=
EXTT1=
EXTT2=
EXTT3=
EXTT4=
EXTT5=
EXTT6=
EXTT7=
EXTT8=
EXTT9=
EXTT10=
EXTT11=
EXTT12=
EXTT13=
EXTT14=
EXTT15=
EXTT16=
EXTT17=
EXTT18=
PLAYORDER=
